<svg width="19" height="18" viewBox="0 0 19 18" fill="none" xmlns="http://www.w3.org/2000/svg">
<path fill-rule="evenodd" clip-rule="evenodd" d="M9.91676 0C4.9682 0 0.960938 4.032 0.960938 9C0.960938 13.968 4.9682 18 9.91676 18C14.8743 18 18.8905 13.968 18.8905 9C18.8905 4.032 14.8743 0 9.91676 0ZM10.8223 4.5H9.02936V9.9H10.8223V4.5ZM10.8223 11.7H9.02936V13.5H10.8223V11.7ZM2.75391 8.99999C2.75391 12.978 5.96331 16.2 9.92575 16.2C13.8882 16.2 17.0976 12.978 17.0976 8.99999C17.0976 5.02199 13.8882 1.79999 9.92575 1.79999C5.96331 1.79999 2.75391 5.02199 2.75391 8.99999Z" fill="white"/>
</svg>
