<svg width="42" height="41" viewBox="0 0 42 41" fill="none" xmlns="http://www.w3.org/2000/svg">
<path d="M39.8106 29.6826C41.2445 26.8686 42 23.7095 42 20.5C42 9.21139 32.5623 0 21 0C9.43605 0 0 9.21299 0 20.5C0 31.7886 9.4377 41 21 41C24.4986 41 27.9054 40.1728 30.9299 38.5985C32.0529 40.0559 33.8395 41 35.8477 41C39.2405 41 42 38.3062 42 34.9941C42 33.9379 41.7162 32.9001 41.1789 31.996L39.8106 29.6826ZM21 38.5977C10.7773 38.5977 2.46094 30.4793 2.46094 20.5C2.46094 10.5207 10.7773 2.40234 21 2.40234C31.2227 2.40234 39.5391 10.5207 39.5391 20.5C39.5391 22.7774 39.11 25.0252 38.2873 27.1064L35.8477 22.9824L30.5156 31.996C29.9791 32.9017 29.6953 33.9379 29.6953 34.9941C29.6953 35.4874 29.7577 35.9671 29.8733 36.4259C27.1802 37.8489 24.1328 38.5977 21 38.5977ZM35.8477 38.5977C33.8125 38.5977 32.1562 36.9809 32.1562 34.9941C32.1562 34.3599 32.3252 33.7393 32.646 33.1988L35.8477 27.7871L39.0485 33.1988C39.3693 33.7393 39.5391 34.3599 39.5391 34.9941C39.5391 36.9809 37.8829 38.5977 35.8477 38.5977Z" fill="black" fill-opacity="0.1"/>
</svg>
