<svg width="166" height="54" viewBox="0 0 166 54" fill="none" xmlns="http://www.w3.org/2000/svg">
<path d="M33.5561 18.5899C33.0093 18.9962 32.3429 19.2104 31.6611 19.1988C30.9792 19.1873 30.3204 18.9507 29.7878 18.5261C29.0224 17.8775 28.1586 17.3543 27.2287 16.9758C25.9169 16.4668 24.5224 16.203 23.1149 16.1975C21.1931 16.17 19.2867 16.5415 17.5168 17.2884C15.8908 17.9946 14.4275 19.026 13.2174 20.3187C12.0054 21.6306 11.0603 23.1645 10.4344 24.8355C9.76717 26.6096 9.43318 28.491 9.4491 30.3857C9.42653 32.3911 9.7601 34.3846 10.4344 36.274C11.0453 37.9941 11.9911 39.5767 13.2174 40.9311C14.4235 42.2413 15.8869 43.2901 17.5168 44.0125C19.281 44.7802 21.1902 45.1609 23.1149 45.1289C24.7495 45.1238 26.3593 44.7301 27.8109 43.9806C28.7456 43.4901 29.607 42.8716 30.37 42.1432C30.8932 41.6587 31.5685 41.3698 32.2811 41.3256C32.9937 41.2814 33.6997 41.4847 34.2791 41.9008L35.0404 42.4431C35.4237 42.7168 35.7398 43.0736 35.9651 43.4866C36.1903 43.8996 36.3188 44.3581 36.341 44.8276C36.3632 45.2972 36.2784 45.7657 36.093 46.198C35.9077 46.6302 35.6265 47.015 35.2707 47.3235C34.0835 48.3626 32.7408 49.2107 31.2913 49.837C28.6831 50.9646 25.868 51.5381 23.0253 51.5212C20.1385 51.5441 17.2726 51.0314 14.5738 50.0092C12.0919 49.0891 9.83087 47.6605 7.93661 45.8156C6.04234 43.9707 4.55684 41.7504 3.57589 39.298C2.49875 36.6065 1.96394 33.7298 2.00202 30.8323C1.96268 27.8683 2.49707 24.9246 3.57589 22.1624C4.55442 19.6733 6.03767 17.4125 7.93281 15.5213C9.82656 13.6637 12.0885 12.2209 14.5738 11.2853C17.2775 10.2776 20.1455 9.78004 23.0317 9.81796C25.6055 9.79436 28.1585 10.2801 30.5427 11.247C31.8153 11.7821 33.0097 12.4859 34.0935 13.3395C34.4648 13.6381 34.7625 14.0176 34.9638 14.4488C35.1651 14.8801 35.2646 15.3515 35.2547 15.8271C35.2448 16.3026 35.1258 16.7695 34.9068 17.1921C34.6877 17.6146 34.3745 17.9815 33.9912 18.2645L33.5561 18.5899Z" fill="white" stroke="white" stroke-width="4" stroke-miterlimit="10"/>
<path d="M57.5735 16.8354H51.777C50.9286 16.8354 50.115 16.4994 49.5151 15.9012C48.9152 15.303 48.5781 14.4916 48.5781 13.6457C48.5781 12.7997 48.9152 11.9883 49.5151 11.3901C50.115 10.7919 50.9286 10.4559 51.777 10.4559H76.8565C77.7049 10.4559 78.5186 10.7919 79.1185 11.3901C79.7184 11.9883 80.0554 12.7997 80.0554 13.6457C80.0554 14.4916 79.7184 15.303 79.1185 15.9012C78.5186 16.4994 77.7049 16.8354 76.8565 16.8354H71.0985C70.2501 16.8354 69.4364 17.1715 68.8365 17.7697C68.2366 18.3679 67.8996 19.1792 67.8996 20.0252V46.9469C67.8996 47.7929 67.5625 48.6043 66.9626 49.2025C66.3627 49.8007 65.5491 50.1367 64.7007 50.1367H64.0289C63.1805 50.1367 62.3668 49.8007 61.7669 49.2025C61.167 48.6043 60.83 47.7929 60.83 46.9469V20.0252C60.83 19.6014 60.7454 19.1819 60.5811 18.7911C60.4167 18.4003 60.1759 18.0461 59.8728 17.7491C59.5696 17.4522 59.2101 17.2184 58.8153 17.0616C58.4206 16.9047 57.9984 16.8278 57.5735 16.8354Z" fill="white" stroke="white" stroke-width="4" stroke-miterlimit="10"/>
<path d="M123.285 50.1944H118.314C118.021 50.1952 117.733 50.1197 117.478 49.9753C117.223 49.831 117.011 49.6228 116.862 49.3715L108.269 34.5326C108.122 34.2784 107.91 34.0674 107.656 33.9207C107.401 33.774 107.111 33.6968 106.817 33.6969H105.755C105.309 33.6969 104.881 33.8737 104.565 34.1883C104.25 34.503 104.072 34.9297 104.072 35.3747V48.4528C104.072 48.8978 103.895 49.3246 103.58 49.6392C103.264 49.9539 102.836 50.1306 102.39 50.1306H98.6662C98.22 50.1306 97.792 49.9539 97.4764 49.6392C97.1609 49.3246 96.9836 48.8978 96.9836 48.4528V29.2695C96.9844 29.0478 97.0292 28.8284 97.1152 28.624C97.2013 28.4195 97.327 28.2341 97.4851 28.0782C97.6432 27.9223 97.8306 27.7991 98.0366 27.7156C98.2426 27.6321 98.4631 27.59 98.6854 27.5917H101.091C101.393 27.5978 101.69 27.5227 101.952 27.3742C102.215 27.2258 102.432 27.0095 102.581 26.7483C102.731 26.487 102.807 26.1904 102.801 25.8897C102.795 25.589 102.709 25.2954 102.55 25.0398L95.3394 12.9187C95.1833 12.6636 95.0983 12.3717 95.0933 12.0729C95.0882 11.7741 95.1633 11.4795 95.3107 11.2193C95.4581 10.9592 95.6725 10.743 95.9317 10.5931C96.1909 10.4433 96.4856 10.3652 96.7853 10.3669H110.368C112.231 10.3608 114.09 10.5489 115.915 10.9283C117.581 11.2568 119.172 11.8929 120.604 12.8039C121.965 13.6916 123.078 14.9072 123.842 16.3381C124.713 18.0733 125.129 20.0004 125.051 21.9394C125.145 24.0329 124.705 26.1161 123.771 27.9936C122.949 29.4625 121.739 30.6783 120.272 31.5087C119.604 31.8947 118.901 32.2172 118.173 32.472C117.939 32.5542 117.726 32.6867 117.549 32.8603C117.372 33.0338 117.236 33.2441 117.15 33.4762C117.064 33.7082 117.03 33.9563 117.051 34.2029C117.072 34.4494 117.147 34.6883 117.271 34.9026L124.737 47.6617C124.889 47.9168 124.97 48.2074 124.972 48.5039C124.974 48.8003 124.898 49.0921 124.75 49.3494C124.603 49.6068 124.389 49.8206 124.132 49.969C123.875 50.1174 123.582 50.1952 123.285 50.1944V50.1944ZM112.089 26.2902C112.292 26.6235 112.604 26.8766 112.972 27.0068C113.34 27.137 113.743 27.1363 114.111 27.0047L114.507 26.858C115.392 26.5043 116.167 25.9232 116.753 25.1738C117.386 24.2511 117.692 23.1444 117.623 22.0287C117.677 20.9902 117.402 19.9611 116.836 19.0877C116.317 18.364 115.621 17.7843 114.814 17.4035C113.94 16.9987 113.003 16.7442 112.044 16.6507C111.074 16.5382 110.097 16.4807 109.12 16.4785C108.821 16.4779 108.527 16.5569 108.269 16.7072C108.011 16.8575 107.797 17.0738 107.651 17.3337C107.504 17.5937 107.429 17.8879 107.435 18.1861C107.44 18.4843 107.525 18.7757 107.681 19.0303L112.089 26.2902Z" fill="white" stroke="white" stroke-width="4" stroke-miterlimit="10"/>
<path d="M142.39 10.5963H143.029C143.878 10.5963 144.691 10.9323 145.291 11.5305C145.891 12.1287 146.228 12.9401 146.228 13.786V40.7078C146.228 41.5538 146.565 42.3651 147.165 42.9633C147.765 43.5615 148.579 43.8976 149.427 43.8976H159.945C160.794 43.8976 161.607 44.2337 162.207 44.8319C162.807 45.4301 163.144 46.2414 163.144 47.0874C163.144 47.9334 162.807 48.7447 162.207 49.3429C161.607 49.9411 160.794 50.2772 159.945 50.2772H142.383C141.535 50.2772 140.721 49.9411 140.121 49.3429C139.521 48.7447 139.184 47.9334 139.184 47.0874V13.7924C139.183 13.3725 139.266 12.9565 139.427 12.5683C139.587 12.1802 139.823 11.8275 140.121 11.5305C140.419 11.2336 140.773 10.9982 141.162 10.8378C141.551 10.6775 141.968 10.5954 142.39 10.5963V10.5963Z" fill="white" stroke="white" stroke-width="4" stroke-miterlimit="10"/>
<path d="M87.6563 8.45272C89.6315 8.45272 91.2327 6.85609 91.2327 4.88655C91.2327 2.917 89.6315 1.32037 87.6563 1.32037C85.6811 1.32037 84.0798 2.917 84.0798 4.88655C84.0798 6.85609 85.6811 8.45272 87.6563 8.45272Z" fill="#9B0021"/>
<path d="M33.0129 49.9157C35.959 49.9157 38.3497 47.5339 38.3497 44.5928C38.3497 41.6516 35.959 39.2698 33.0129 39.2698C30.0668 39.2698 27.6761 41.6516 27.6761 44.5928C27.6761 47.5339 30.0668 49.9157 33.0129 49.9157Z" fill="#E47E00" stroke="#E47E00"/>
<path d="M142.754 19.2686C145.736 19.2686 148.155 16.8582 148.155 13.8819C148.155 10.9055 145.736 8.49515 142.754 8.49515C139.773 8.49515 137.354 10.9055 137.354 13.8819C137.354 16.8582 139.773 19.2686 142.754 19.2686Z" fill="#E47E00" stroke="#E47E00"/>
<path d="M87.6566 9.77351C90.3632 9.77351 92.5573 7.58564 92.5573 4.88676C92.5573 2.18788 90.3632 0 87.6566 0C84.95 0 82.7559 2.18788 82.7559 4.88676C82.7559 7.58564 84.95 9.77351 87.6566 9.77351Z" fill="#E47E00"/>
</svg>
