<svg width="45" height="33" viewBox="0 0 45 33" fill="none" xmlns="http://www.w3.org/2000/svg">
<path d="M33.2224 23.9609C30.2324 23.9609 28.3498 25.1211 26.6886 26.1195C25.249 26.9829 24.0751 27.7384 22.1482 27.7384C20.1549 27.7384 19.0475 27.0639 17.6079 26.1195C15.9467 25.0942 14.1306 23.9609 11.0741 23.9609C8.01767 23.9609 6.20151 25.1211 4.54039 26.1195C3.10075 26.9829 1.94905 27.7384 0 27.7384V33C2.99001 33 4.87261 31.8397 6.53373 30.8414C7.97337 29.897 9.08078 29.2225 11.0741 29.2225C13.0675 29.2225 14.1749 29.897 15.6145 30.8414C17.2756 31.8667 19.0918 33 22.1482 33C25.2047 33 27.0209 31.8397 28.682 30.8414C30.1216 29.897 31.229 29.2225 33.2224 29.2225C35.2157 29.2225 36.3231 29.897 37.7628 30.8414C39.4239 31.8667 41.2622 33 44.2965 33V27.7384C42.3032 27.7384 41.1957 27.0639 39.7561 26.1195C38.095 25.0942 36.2124 23.9609 33.2224 23.9609Z" fill="#DADADA" fill-opacity="0.47"/>
<path d="M39.7561 2.15859C38.095 1.13326 36.2567 0 33.2224 0C30.1881 0 28.3498 1.13326 26.6886 2.15859C25.249 3.02202 24.0751 3.77753 22.1482 3.77753C20.1549 3.77753 19.0475 3.10297 17.6079 2.15859C15.9467 1.16024 14.1306 0 11.0741 0C8.01767 0 6.20151 1.13326 4.54039 2.15859C3.10075 3.04901 1.94905 3.77753 0 3.77753V8.98512C2.99001 8.98512 4.87261 7.82488 6.53373 6.82653C7.97337 5.93612 9.12508 5.20759 11.0741 5.20759C13.0232 5.20759 14.1749 5.88215 15.6145 6.82653C17.2756 7.85186 19.0918 8.98512 22.1482 8.98512C25.2047 8.98512 27.0209 7.82488 28.682 6.82653C30.1216 5.9631 31.2955 5.20759 33.2224 5.20759C35.2157 5.20759 36.3231 5.88215 37.7628 6.82653C39.4239 7.85186 41.2622 8.98512 44.2965 8.98512V3.72356C42.3032 3.72356 41.1957 3.04901 39.7561 2.15859Z" fill="#DADADA" fill-opacity="0.47"/>
<path d="M33.2224 11.9544C30.2324 11.9544 28.3498 13.1146 26.6886 14.1129C25.249 15.0573 24.1416 15.7319 22.1482 15.7319C20.1549 15.7319 19.0475 15.0573 17.6079 14.1129C15.9467 13.0876 14.1306 11.9544 11.0741 11.9544C8.01767 11.9544 6.20151 13.1146 4.54039 14.1129C3.10075 15.0573 1.99334 15.7319 0 15.7319V20.9934C2.99001 20.9934 4.87261 19.8332 6.53373 18.8348C7.97337 17.9714 9.14723 17.2159 11.0741 17.2159C13.001 17.2159 14.1749 17.8905 15.6145 18.8348C17.2756 19.8602 19.0918 20.9934 22.1482 20.9934C25.2047 20.9934 27.0209 19.8332 28.682 18.8348C30.1216 17.9714 31.2955 17.2159 33.2224 17.2159C35.2157 17.2159 36.3231 17.8905 37.7628 18.8348C39.4239 19.8602 41.2622 20.9934 44.2965 20.9934V15.7319C42.3032 15.7319 41.1957 15.0573 39.7561 14.1129C38.095 13.0876 36.2124 11.9544 33.2224 11.9544Z" fill="#DADADA" fill-opacity="0.47"/>
</svg>
